<svg id="visual" viewBox="0 0 900 600" width="900" height="600" xmlns="http://www.w3.org/2000/svg" xmlns:xlink="http://www.w3.org/1999/xlink" version="1.1"><rect x="0" y="0" width="900" height="600" fill="#001220"></rect><defs><linearGradient id="grad1_0" x1="33.3%" y1="0%" x2="100%" y2="100%"><stop offset="20%" stop-color="#007777" stop-opacity="1"></stop><stop offset="80%" stop-color="#007777" stop-opacity="1"></stop></linearGradient></defs><defs><linearGradient id="grad1_1" x1="33.3%" y1="0%" x2="100%" y2="100%"><stop offset="20%" stop-color="#007777" stop-opacity="1"></stop><stop offset="80%" stop-color="#00676e" stop-opacity="1"></stop></linearGradient></defs><defs><linearGradient id="grad1_2" x1="33.3%" y1="0%" x2="100%" y2="100%"><stop offset="20%" stop-color="#005864" stop-opacity="1"></stop><stop offset="80%" stop-color="#00676e" stop-opacity="1"></stop></linearGradient></defs><defs><linearGradient id="grad1_3" x1="33.3%" y1="0%" x2="100%" y2="100%"><stop offset="20%" stop-color="#005864" stop-opacity="1"></stop><stop offset="80%" stop-color="#004958" stop-opacity="1"></stop></linearGradient></defs><defs><linearGradient id="grad1_4" x1="33.3%" y1="0%" x2="100%" y2="100%"><stop offset="20%" stop-color="#003a4b" stop-opacity="1"></stop><stop offset="80%" stop-color="#004958" stop-opacity="1"></stop></linearGradient></defs><defs><linearGradient id="grad1_5" x1="33.3%" y1="0%" x2="100%" y2="100%"><stop offset="20%" stop-color="#003a4b" stop-opacity="1"></stop><stop offset="80%" stop-color="#002c3d" stop-opacity="1"></stop></linearGradient></defs><defs><linearGradient id="grad1_6" x1="33.3%" y1="0%" x2="100%" y2="100%"><stop offset="20%" stop-color="#031f2f" stop-opacity="1"></stop><stop offset="80%" stop-color="#002c3d" stop-opacity="1"></stop></linearGradient></defs><defs><linearGradient id="grad1_7" x1="33.3%" y1="0%" x2="100%" y2="100%"><stop offset="20%" stop-color="#031f2f" stop-opacity="1"></stop><stop offset="80%" stop-color="#001220" stop-opacity="1"></stop></linearGradient></defs><defs><linearGradient id="grad2_0" x1="0%" y1="0%" x2="66.7%" y2="100%"><stop offset="20%" stop-color="#007777" stop-opacity="1"></stop><stop offset="80%" stop-color="#007777" stop-opacity="1"></stop></linearGradient></defs><defs><linearGradient id="grad2_1" x1="0%" y1="0%" x2="66.7%" y2="100%"><stop offset="20%" stop-color="#00676e" stop-opacity="1"></stop><stop offset="80%" stop-color="#007777" stop-opacity="1"></stop></linearGradient></defs><defs><linearGradient id="grad2_2" x1="0%" y1="0%" x2="66.7%" y2="100%"><stop offset="20%" stop-color="#00676e" stop-opacity="1"></stop><stop offset="80%" stop-color="#005864" stop-opacity="1"></stop></linearGradient></defs><defs><linearGradient id="grad2_3" x1="0%" y1="0%" x2="66.7%" y2="100%"><stop offset="20%" stop-color="#004958" stop-opacity="1"></stop><stop offset="80%" stop-color="#005864" stop-opacity="1"></stop></linearGradient></defs><defs><linearGradient id="grad2_4" x1="0%" y1="0%" x2="66.7%" y2="100%"><stop offset="20%" stop-color="#004958" stop-opacity="1"></stop><stop offset="80%" stop-color="#003a4b" stop-opacity="1"></stop></linearGradient></defs><defs><linearGradient id="grad2_5" x1="0%" y1="0%" x2="66.7%" y2="100%"><stop offset="20%" stop-color="#002c3d" stop-opacity="1"></stop><stop offset="80%" stop-color="#003a4b" stop-opacity="1"></stop></linearGradient></defs><defs><linearGradient id="grad2_6" x1="0%" y1="0%" x2="66.7%" y2="100%"><stop offset="20%" stop-color="#002c3d" stop-opacity="1"></stop><stop offset="80%" stop-color="#031f2f" stop-opacity="1"></stop></linearGradient></defs><defs><linearGradient id="grad2_7" x1="0%" y1="0%" x2="66.7%" y2="100%"><stop offset="20%" stop-color="#001220" stop-opacity="1"></stop><stop offset="80%" stop-color="#031f2f" stop-opacity="1"></stop></linearGradient></defs><g transform="translate(900, 0)"><path d="M0 540.8C-21.5 504.9 -43 468.9 -65.7 457.3C-88.5 445.7 -112.4 458.5 -133.8 455.8C-155.2 453 -174.1 434.6 -191.9 420.2C-209.7 405.9 -226.4 395.6 -255.7 397.9C-285.1 400.2 -327.2 415.2 -354.2 408.7C-381.2 402.2 -393.1 374.2 -396.8 343.8C-400.4 313.4 -395.7 280.6 -398.8 256.3C-401.8 231.9 -412.8 216 -442.1 201.9C-471.4 187.7 -519.1 175.4 -516.2 151.6C-513.3 127.8 -459.7 92.6 -455.3 65.5C-451 38.3 -495.9 19.2 -540.8 0L0 0Z" fill="#031927"></path><path d="M0 473.2C-18.8 441.7 -37.6 410.3 -57.5 400.1C-77.4 390 -98.4 401.2 -117.1 398.8C-135.8 396.4 -152.4 380.3 -167.9 367.7C-183.5 355.2 -198.1 346.1 -223.8 348.2C-249.5 350.2 -286.3 363.3 -309.9 357.6C-333.5 351.9 -344 327.4 -347.2 300.8C-350.3 274.2 -346.2 245.5 -348.9 224.2C-351.6 202.9 -361.2 189 -386.8 176.7C-412.5 164.3 -454.3 153.4 -451.7 132.6C-449.1 111.8 -402.2 81 -398.4 57.3C-394.6 33.5 -433.9 16.8 -473.2 0L0 0Z" fill="#022636"></path><path d="M0 405.6C-16.1 378.6 -32.3 351.7 -49.3 343C-66.4 334.3 -84.3 343.9 -100.4 341.8C-116.4 339.7 -130.6 326 -143.9 315.2C-157.3 304.4 -169.8 296.7 -191.8 298.4C-213.8 300.2 -245.4 311.4 -265.6 306.6C-285.9 301.7 -294.9 280.7 -297.6 257.9C-300.3 235 -296.7 210.5 -299.1 192.2C-301.4 173.9 -309.6 162 -331.6 151.4C-353.6 140.8 -389.4 131.5 -387.2 113.7C-385 95.8 -344.7 69.5 -341.5 49.1C-338.2 28.7 -371.9 14.4 -405.6 0L0 0Z" fill="#003344"></path><path d="M0 338C-13.4 315.5 -26.9 293 -41.1 285.8C-55.3 278.6 -70.3 286.6 -83.6 284.8C-97 283.1 -108.8 271.6 -120 262.7C-131.1 253.7 -141.5 247.2 -159.8 248.7C-178.2 250.2 -204.5 259.5 -221.4 255.5C-238.2 251.4 -245.7 233.9 -248 214.9C-250.2 195.9 -247.3 175.4 -249.2 160.2C-251.2 145 -258 135 -276.3 126.2C-294.6 117.3 -324.5 109.6 -322.6 94.7C-320.8 79.9 -287.3 57.9 -284.6 40.9C-281.9 23.9 -309.9 12 -338 0L0 0Z" fill="#004252"></path><path d="M0 270.4C-10.8 252.4 -21.5 234.4 -32.9 228.6C-44.2 222.9 -56.2 229.3 -66.9 227.9C-77.6 226.5 -87.1 217.3 -96 210.1C-104.9 202.9 -113.2 197.8 -127.9 199C-142.5 200.1 -163.6 207.6 -177.1 204.4C-190.6 201.1 -196.6 187.1 -198.4 171.9C-200.2 156.7 -197.8 140.3 -199.4 128.1C-200.9 116 -206.4 108 -221 100.9C-235.7 93.9 -259.6 87.7 -258.1 75.8C-256.6 63.9 -229.8 46.3 -227.7 32.7C-225.5 19.2 -248 9.6 -270.4 0L0 0Z" fill="#00505e"></path><path d="M0 202.8C-8.1 189.3 -16.1 175.8 -24.7 171.5C-33.2 167.1 -42.2 172 -50.2 170.9C-58.2 169.9 -65.3 163 -72 157.6C-78.6 152.2 -84.9 148.3 -95.9 149.2C-106.9 150.1 -122.7 155.7 -132.8 153.3C-142.9 150.8 -147.4 140.3 -148.8 128.9C-150.1 117.5 -148.4 105.2 -149.5 96.1C-150.7 87 -154.8 81 -165.8 75.7C-176.8 70.4 -194.7 65.8 -193.6 56.8C-192.5 47.9 -172.4 34.7 -170.7 24.5C-169.1 14.4 -186 7.2 -202.8 0L0 0Z" fill="#006069"></path><path d="M0 135.2C-5.4 126.2 -10.8 117.2 -16.4 114.3C-22.1 111.4 -28.1 114.6 -33.5 113.9C-38.8 113.2 -43.5 108.7 -48 105.1C-52.4 101.5 -56.6 98.9 -63.9 99.5C-71.3 100.1 -81.8 103.8 -88.5 102.2C-95.3 100.6 -98.3 93.6 -99.2 86C-100.1 78.3 -98.9 70.2 -99.7 64.1C-100.5 58 -103.2 54 -110.5 50.5C-117.9 46.9 -129.8 43.8 -129.1 37.9C-128.3 31.9 -114.9 23.2 -113.8 16.4C-112.7 9.6 -124 4.8 -135.2 0L0 0Z" fill="#006f73"></path><path d="M0 67.6C-2.7 63.1 -5.4 58.6 -8.2 57.2C-11.1 55.7 -14.1 57.3 -16.7 57C-19.4 56.6 -21.8 54.3 -24 52.5C-26.2 50.7 -28.3 49.4 -32 49.7C-35.6 50 -40.9 51.9 -44.3 51.1C-47.6 50.3 -49.1 46.8 -49.6 43C-50 39.2 -49.5 35.1 -49.8 32C-50.2 29 -51.6 27 -55.3 25.2C-58.9 23.5 -64.9 21.9 -64.5 18.9C-64.2 16 -57.5 11.6 -56.9 8.2C-56.4 4.8 -62 2.4 -67.6 0L0 0Z" fill="#007777"></path></g><g transform="translate(0, 600)"><path d="M0 -540.8C26.4 -538.6 52.8 -536.3 75.3 -523.6C97.7 -510.9 116.2 -487.7 142.3 -484.5C168.3 -481.4 201.9 -498.2 221.8 -485.7C241.8 -473.3 248 -431.5 262.2 -408C276.4 -384.5 298.5 -379.3 319.6 -368.8C340.6 -358.3 360.7 -342.7 374.1 -324.2C387.5 -305.7 394.4 -284.4 420.6 -270.3C446.9 -256.3 492.6 -249.5 492 -224.7C491.3 -199.8 444.4 -156.9 442.3 -129.9C440.2 -102.9 482.9 -91.9 506.8 -72.9C530.7 -53.9 535.8 -26.9 540.8 0L0 0Z" fill="#031927"></path><path d="M0 -473.2C23.1 -471.3 46.2 -469.3 65.9 -458.2C85.5 -447 101.7 -426.8 124.5 -424C147.3 -421.2 176.7 -435.9 194.1 -425C211.5 -414.1 217 -377.6 229.4 -357C241.8 -336.4 261.2 -331.9 279.6 -322.7C298.1 -313.5 315.6 -299.8 327.3 -283.6C339.1 -267.5 345.1 -248.8 368 -236.5C391 -224.3 431 -218.3 430.5 -196.6C429.9 -174.8 388.9 -137.3 387 -113.6C385.2 -90 422.5 -80.4 443.4 -63.8C464.3 -47.1 468.8 -23.6 473.2 0L0 0Z" fill="#022636"></path><path d="M0 -405.6C19.8 -403.9 39.6 -402.2 56.5 -392.7C73.3 -383.2 87.2 -365.8 106.7 -363.4C126.2 -361 151.4 -373.7 166.4 -364.3C181.3 -355 186 -323.6 196.7 -306C207.3 -288.4 223.9 -284.5 239.7 -276.6C255.5 -268.8 270.5 -257 280.6 -243.1C290.6 -229.2 295.8 -213.3 315.5 -202.7C335.2 -192.2 369.4 -187.1 369 -168.5C368.5 -149.9 333.3 -117.7 331.7 -97.4C330.2 -77.2 362.2 -68.9 380.1 -54.6C398 -40.4 401.8 -20.2 405.6 0L0 0Z" fill="#003344"></path><path d="M0 -338C16.5 -336.6 33 -335.2 47.1 -327.3C61.1 -319.3 72.6 -304.8 88.9 -302.8C105.2 -300.9 126.2 -311.4 138.6 -303.6C151.1 -295.8 155 -269.7 163.9 -255C172.7 -240.3 186.6 -237 199.7 -230.5C212.9 -224 225.4 -214.2 233.8 -202.6C242.2 -191 246.5 -177.7 262.9 -169C279.3 -160.2 307.9 -156 307.5 -140.4C307.1 -124.9 277.8 -98 276.5 -81.2C275.1 -64.3 301.8 -57.4 316.7 -45.5C331.7 -33.7 334.8 -16.8 338 0L0 0Z" fill="#004252"></path><path d="M0 -270.4C13.2 -269.3 26.4 -268.2 37.6 -261.8C48.9 -255.4 58.1 -243.9 71.1 -242.3C84.2 -240.7 101 -249.1 110.9 -242.9C120.9 -236.6 124 -215.8 131.1 -204C138.2 -192.3 149.3 -189.6 159.8 -184.4C170.3 -179.2 180.3 -171.3 187 -162.1C193.8 -152.8 197.2 -142.2 210.3 -135.2C223.4 -128.1 246.3 -124.8 246 -112.3C245.7 -99.9 222.2 -78.4 221.2 -64.9C220.1 -51.4 241.5 -45.9 253.4 -36.4C265.3 -26.9 267.9 -13.5 270.4 0L0 0Z" fill="#00505e"></path><path d="M0 -202.8C9.9 -202 19.8 -201.1 28.2 -196.4C36.7 -191.6 43.6 -182.9 53.4 -181.7C63.1 -180.5 75.7 -186.8 83.2 -182.2C90.7 -177.5 93 -161.8 98.3 -153C103.6 -144.2 111.9 -142.2 119.8 -138.3C127.7 -134.4 135.2 -128.5 140.3 -121.6C145.3 -114.6 147.9 -106.6 157.7 -101.4C167.6 -96.1 184.7 -93.6 184.5 -84.3C184.3 -74.9 166.7 -58.8 165.9 -48.7C165.1 -38.6 181.1 -34.4 190 -27.3C199 -20.2 200.9 -10.1 202.8 0L0 0Z" fill="#006069"></path><path d="M0 -135.2C6.6 -134.6 13.2 -134.1 18.8 -130.9C24.4 -127.7 29.1 -121.9 35.6 -121.1C42.1 -120.3 50.5 -124.6 55.5 -121.4C60.4 -118.3 62 -107.9 65.6 -102C69.1 -96.1 74.6 -94.8 79.9 -92.2C85.2 -89.6 90.2 -85.7 93.5 -81C96.9 -76.4 98.6 -71.1 105.2 -67.6C111.7 -64.1 123.1 -62.4 123 -56.2C122.8 -50 111.1 -39.2 110.6 -32.5C110.1 -25.7 120.7 -23 126.7 -18.2C132.7 -13.5 133.9 -6.7 135.2 0L0 0Z" fill="#006f73"></path><path d="M0 -67.6C3.3 -67.3 6.6 -67 9.4 -65.5C12.2 -63.9 14.5 -61 17.8 -60.6C21 -60.2 25.2 -62.3 27.7 -60.7C30.2 -59.2 31 -53.9 32.8 -51C34.5 -48.1 37.3 -47.4 39.9 -46.1C42.6 -44.8 45.1 -42.8 46.8 -40.5C48.4 -38.2 49.3 -35.5 52.6 -33.8C55.9 -32 61.6 -31.2 61.5 -28.1C61.4 -25 55.6 -19.6 55.3 -16.2C55 -12.9 60.4 -11.5 63.3 -9.1C66.3 -6.7 67 -3.4 67.6 0L0 0Z" fill="#007777"></path></g></svg>